<svg version="1.1" xmlns="http://www.w3.org/2000/svg" viewBox="-1137.3155616371714 -2516.5088021939855 7226.403819228157 5518.960591686674"><desc>Created with Snap</desc><defs></defs><g><g transform="matrix(16.8346,0,0,16.8346,-947.1594,-3449.8157)">
<g id="gSl5k1646als">
	<path d="M61.01423,300.22949c59.23515,70.46036,160.56436,82.36752,241.84523,41.02591
		c81.90601-41.65958,158.72986-208.10381,21.72983-214.46304c-52.95584-2.45808-89.79474,40.29303-135.24965,3.27516
		c-37.44801-30.49716-64.47668-74.02538-132.06207-48.85297C-21.33626,110.49453,1.72878,229.7093,61.01423,300.22949z" fill="#832161" style=""></path>
</g>


<desc>Created with Snap</desc><defs></defs></g><g><g transform="matrix(1.024,0,0,-1.024,0,0)"><path d="M449 608Q421 606 389 605Q358 604 320 603Q321 576 322 552Q323 529 324 505Q325 481 325 455Q326 429 326 397Q326 352 326 310Q326 269 325 227Q324 186 323 144Q322 102 320 57Q319 33 315 20Q312 7 306 0Q300 -7 292 -9Q284 -10 274 -10Q256 -10 243 2Q231 15 229 56Q227 92 226 132Q226 172 225 218Q224 264 224 317Q224 371 224 436Q224 491 224 532Q225 573 227 603L186 603Q144 603 114 604Q85 605 66 609Q47 614 38 624Q30 634 30 652Q30 661 32 668Q34 676 41 682Q48 689 60 693Q73 697 93 699Q112 700 127 701Q142 702 157 703Q172 704 188 704Q204 704 225 704Q284 704 336 703Q389 702 448 699Q472 697 485 693Q498 690 505 684Q512 678 513 670Q515 662 515 652Q515 634 502 622Q490 610 449 608ZM840 411Q803 411 773 400Q744 389 707 370Q707 369 707 351Q707 333 706 305Q706 277 705 242Q705 208 704 173Q704 139 702 108Q701 77 700 56Q698 35 695 23Q693 11 689 5Q686 0 680 -1Q674 -2 667 -2Q650 -2 640 -1Q631 1 625 6Q619 12 616 23Q614 34 612 53Q610 72 608 105Q607 139 606 180Q605 222 604 269Q604 316 604 362Q604 408 604 459Q605 511 606 558Q607 606 608 643Q609 681 611 699Q613 725 620 744Q628 763 654 763Q674 763 686 749Q699 735 701 696Q703 661 704 598Q706 536 707 458Q721 469 741 478Q761 488 783 494Q805 501 828 505Q851 509 871 509Q919 509 954 486Q990 464 1011 422Q1025 395 1032 362Q1039 330 1042 294Q1043 278 1044 262Q1045 247 1045 229Q1046 212 1046 190Q1046 168 1046 138Q1046 108 1045 82Q1044 57 1039 38Q1035 20 1025 9Q1015 -1 997 -1Q971 -1 958 15Q946 32 946 55Q946 56 946 76Q946 96 945 122Q945 149 944 176Q944 203 943 220Q942 236 940 254Q939 273 936 292Q934 311 930 328Q926 346 920 360Q906 393 885 402Q864 411 840 411ZM1392 184Q1357 184 1318 189Q1280 195 1235 213Q1244 152 1285 121Q1327 90 1405 90Q1433 90 1455 93Q1478 97 1495 101Q1512 106 1525 109Q1538 113 1549 113Q1563 113 1576 104Q1589 96 1589 76Q1589 51 1568 35Q1548 19 1518 9Q1489 0 1456 -4Q1423 -7 1398 -7Q1339 -7 1289 9Q1240 25 1204 57Q1168 90 1148 138Q1128 186 1128 250Q1128 312 1147 360Q1167 408 1201 441Q1235 474 1281 491Q1328 508 1382 508Q1424 508 1463 497Q1503 486 1533 464Q1564 442 1582 408Q1601 375 1601 330Q1601 290 1586 262Q1571 234 1543 217Q1516 200 1477 192Q1439 184 1392 184ZM1385 416Q1358 416 1333 409Q1308 403 1287 388Q1267 374 1253 350Q1239 327 1234 292Q1272 275 1308 268Q1344 262 1384 262Q1443 262 1471 276Q1500 291 1500 329Q1500 364 1473 390Q1447 416 1385 416ZM2293 608Q2265 606 2233 605Q2202 604 2164 603Q2165 576 2166 552Q2167 529 2168 505Q2169 481 2169 455Q2170 429 2170 397Q2170 352 2170 310Q2170 269 2169 227Q2168 186 2167 144Q2166 102 2164 57Q2163 33 2159 20Q2156 7 2150 0Q2144 -7 2136 -9Q2128 -10 2118 -10Q2100 -10 2087 2Q2075 15 2073 56Q2071 92 2070 132Q2070 172 2069 218Q2068 264 2068 317Q2068 371 2068 436Q2068 491 2068 532Q2069 573 2071 603L2030 603Q1988 603 1958 604Q1929 605 1910 609Q1891 614 1882 624Q1874 634 1874 652Q1874 661 1876 668Q1878 676 1885 682Q1892 689 1904 693Q1917 697 1937 699Q1956 700 1971 701Q1986 702 2001 703Q2016 704 2032 704Q2048 704 2069 704Q2128 704 2180 703Q2233 702 2292 699Q2316 697 2329 693Q2342 690 2349 684Q2356 678 2357 670Q2359 662 2359 652Q2359 634 2346 622Q2334 610 2293 608ZM2567 -183Q2554 -206 2542 -217Q2531 -228 2516 -228Q2502 -228 2488 -219Q2474 -210 2474 -194Q2474 -179 2484 -151Q2495 -123 2510 -90Q2526 -57 2543 -22Q2560 13 2574 42L2581 57Q2551 116 2519 183Q2488 250 2462 310Q2436 370 2419 414Q2403 459 2403 473Q2403 486 2413 495Q2424 505 2440 505Q2454 505 2467 499Q2480 494 2491 475Q2507 445 2524 406Q2542 368 2559 326Q2577 284 2595 241Q2614 198 2633 158Q2655 199 2680 244Q2705 289 2728 331Q2752 373 2772 408Q2792 444 2806 468Q2820 491 2834 501Q2848 511 2863 511Q2873 511 2883 502Q2893 494 2893 480Q2893 459 2874 412Q2856 366 2827 305Q2798 244 2761 174Q2725 105 2689 38Q2653 -28 2620 -86Q2588 -144 2567 -183ZM3077 -144Q3077 -163 3076 -181Q3075 -198 3069 -212Q3064 -226 3053 -235Q3043 -243 3024 -243Q3002 -243 2987 -228Q2973 -212 2971 -173Q2970 -148 2968 -112Q2966 -76 2964 -36Q2963 4 2961 44Q2960 84 2960 118Q2960 235 2976 311Q2993 387 3026 432Q3059 477 3107 495Q3156 513 3220 513Q3271 513 3316 497Q3361 482 3394 449Q3428 417 3448 365Q3468 314 3468 242Q3468 182 3447 136Q3427 90 3391 58Q3355 27 3306 10Q3258 -6 3203 -6Q3156 -6 3118 13Q3081 33 3065 56Q3070 0 3073 -48Q3077 -96 3077 -144ZM3215 413Q3180 413 3154 401Q3129 389 3113 368Q3097 347 3089 318Q3082 289 3082 255Q3082 222 3088 192Q3095 163 3110 141Q3125 119 3150 106Q3175 93 3211 93Q3239 93 3265 100Q3291 108 3311 126Q3332 144 3344 174Q3357 204 3357 249Q3357 295 3344 326Q3332 358 3311 377Q3291 397 3265 405Q3240 413 3215 413ZM3564 62Q3562 99 3560 146Q3559 194 3559 251Q3559 322 3560 372Q3561 423 3565 455Q3570 488 3580 503Q3590 519 3608 519Q3625 519 3638 507Q3651 495 3653 455Q3659 350 3659 252Q3659 202 3657 158Q3655 115 3653 63Q3652 39 3648 26Q3645 13 3639 6Q3633 -1 3625 -3Q3618 -4 3608 -4Q3590 -4 3578 8Q3566 21 3564 62ZM3609 700Q3632 700 3651 682Q3671 664 3671 639Q3671 615 3651 597Q3631 580 3606 580Q3585 580 3566 597Q3548 615 3548 641Q3548 665 3566 682Q3585 700 3609 700ZM4018 426Q3981 426 3951 414Q3922 402 3885 378Q3885 357 3885 316Q3885 276 3884 228Q3883 181 3882 135Q3881 89 3878 58Q3876 38 3873 26Q3871 15 3866 9Q3862 3 3854 1Q3847 0 3835 0Q3823 0 3815 1Q3808 3 3803 8Q3798 14 3795 25Q3792 36 3790 55Q3788 73 3786 103Q3785 133 3784 168Q3783 204 3782 240Q3782 277 3782 308Q3782 359 3783 391Q3785 423 3789 448Q3795 490 3805 501Q3815 512 3832 512Q3857 512 3869 498Q3882 484 3885 452Q3922 484 3964 503Q4007 522 4052 522Q4095 522 4130 502Q4166 482 4189 437Q4203 410 4210 377Q4217 345 4220 309Q4221 293 4222 277Q4223 262 4223 244Q4224 227 4224 205Q4224 183 4224 153Q4224 121 4223 93Q4222 65 4217 44Q4213 24 4202 12Q4191 1 4172 1Q4126 1 4124 45Q4124 48 4124 70Q4124 93 4123 123Q4123 153 4122 184Q4122 215 4121 235Q4120 251 4118 269Q4117 288 4114 307Q4112 326 4108 343Q4104 361 4098 375Q4084 408 4063 417Q4042 426 4018 426ZM4537 -137Q4584 -137 4616 -119Q4649 -100 4669 -66Q4689 -31 4697 17Q4706 66 4706 127Q4697 95 4680 73Q4663 51 4640 37Q4618 24 4590 18Q4562 12 4532 12Q4486 12 4445 25Q4404 38 4373 66Q4343 94 4325 137Q4307 181 4307 242Q4307 301 4324 350Q4342 400 4375 436Q4409 472 4457 492Q4505 512 4567 512Q4600 512 4625 506Q4651 500 4671 490Q4691 480 4706 466Q4722 452 4735 436Q4773 388 4790 322Q4807 257 4807 165Q4807 97 4795 26Q4784 -45 4754 -103Q4724 -160 4671 -197Q4618 -233 4535 -233Q4520 -233 4501 -232Q4483 -230 4463 -227Q4444 -224 4425 -219Q4406 -213 4390 -204Q4370 -193 4358 -183Q4346 -173 4346 -150Q4346 -131 4354 -116Q4363 -100 4384 -100Q4394 -100 4406 -106Q4418 -112 4435 -119Q4453 -125 4477 -131Q4502 -137 4537 -137ZM4542 103Q4581 103 4608 117Q4636 132 4653 156Q4671 180 4679 210Q4688 240 4688 270Q4688 295 4681 320Q4675 346 4660 367Q4645 388 4619 401Q4593 414 4554 414Q4488 414 4447 374Q4407 334 4407 256Q4407 183 4443 143Q4479 103 4542 103Z" fill="#f0dd7a" style=""></path></g></g><g transform="matrix(1,0,0,1,1128.9599,1281.024)"><g transform="matrix(1.024,0,0,-1.024,0,0)"><path d="M365 708Q398 708 433 702Q468 696 497 684Q526 673 545 656Q564 639 564 617Q564 594 552 582Q540 570 522 570Q505 570 490 576Q476 582 458 589Q440 596 415 602Q390 608 352 608Q310 608 273 588Q237 569 209 534Q181 500 165 453Q149 406 149 351Q149 284 166 235Q183 186 210 154Q238 122 272 106Q307 91 342 91Q399 91 432 107Q466 124 486 150Q487 171 487 200Q487 229 487 263Q487 276 485 283Q483 291 475 295Q467 299 451 300Q436 301 410 301Q378 301 358 309Q338 318 338 346Q338 366 348 378Q359 391 392 393Q398 393 411 393Q425 394 440 394Q456 394 471 394Q486 394 495 394Q525 394 543 388Q561 383 575 364Q582 354 583 329Q585 304 585 271L585 13Q585 -14 570 -27Q556 -40 537 -40Q514 -40 499 -29Q485 -17 485 8L485 47Q459 17 423 4Q388 -9 334 -9Q279 -9 226 13Q173 35 132 78Q91 122 65 187Q40 253 40 340Q40 427 65 495Q91 563 135 610Q179 658 238 683Q297 708 365 708ZM1106 -4Q1090 -4 1080 1Q1071 7 1066 16Q1061 25 1059 37Q1057 50 1056 64Q1031 33 991 12Q952 -9 891 -9Q852 -9 811 2Q771 14 738 42Q705 71 684 119Q663 167 663 240Q663 297 677 347Q691 397 719 434Q748 472 791 494Q834 516 892 516Q943 516 983 497Q1023 479 1055 437Q1055 449 1056 461Q1057 474 1061 484Q1066 495 1076 501Q1086 508 1103 508Q1118 508 1131 496Q1144 484 1146 444Q1149 391 1150 349Q1152 307 1152 262Q1152 207 1151 161Q1150 115 1146 63Q1144 40 1140 26Q1137 13 1132 6Q1127 0 1120 -2Q1113 -4 1106 -4ZM1052 250Q1052 302 1036 335Q1021 368 997 386Q974 405 947 412Q920 419 897 419Q861 419 835 406Q810 393 794 370Q778 348 770 317Q763 287 763 251Q763 163 801 121Q840 79 906 79Q945 79 972 92Q1000 106 1017 129Q1035 152 1043 183Q1052 215 1052 250ZM1943 30Q1937 47 1935 68Q1934 89 1934 120Q1934 142 1934 154Q1935 167 1935 176Q1935 186 1935 195Q1936 205 1936 222Q1936 257 1934 292Q1933 328 1924 356Q1915 385 1896 403Q1877 421 1841 421Q1780 421 1746 363Q1712 305 1705 178Q1703 138 1703 105Q1703 72 1699 48Q1695 25 1684 12Q1674 -1 1650 -1Q1628 -1 1618 10Q1608 22 1603 45Q1599 68 1598 101Q1598 134 1595 178Q1592 226 1585 270Q1579 314 1564 347Q1550 381 1525 401Q1501 421 1463 421Q1427 421 1407 403Q1388 386 1379 357Q1370 329 1368 293Q1367 258 1367 222Q1367 204 1367 195Q1368 187 1368 180Q1368 173 1368 162Q1369 151 1369 128Q1369 95 1367 71Q1366 47 1360 30Q1353 10 1341 5Q1329 1 1319 1Q1288 1 1279 23Q1270 45 1269 87Q1269 110 1268 138Q1268 167 1268 208Q1268 228 1268 243Q1268 258 1268 272Q1269 286 1269 300Q1270 315 1271 334Q1274 395 1293 431Q1312 468 1338 487Q1364 506 1394 511Q1424 517 1449 517Q1503 517 1540 501Q1577 485 1600 459Q1624 433 1635 400Q1647 367 1651 333Q1655 366 1667 398Q1680 431 1704 456Q1729 482 1768 498Q1807 514 1864 514Q1891 514 1919 508Q1948 503 1972 484Q1996 465 2012 429Q2029 394 2032 334Q2033 315 2033 300Q2034 286 2034 272Q2035 258 2035 243Q2035 228 2035 208Q2035 167 2034 138Q2034 110 2034 87Q2034 68 2032 52Q2031 36 2026 25Q2021 14 2011 7Q2002 1 1984 1Q1967 1 1958 7Q1949 14 1943 30ZM2383 184Q2348 184 2309 189Q2271 195 2226 213Q2235 152 2276 121Q2318 90 2396 90Q2424 90 2446 93Q2469 97 2486 101Q2503 106 2516 109Q2529 113 2540 113Q2554 113 2567 104Q2580 96 2580 76Q2580 51 2559 35Q2539 19 2509 9Q2480 0 2447 -4Q2414 -7 2389 -7Q2330 -7 2280 9Q2231 25 2195 57Q2159 90 2139 138Q2119 186 2119 250Q2119 312 2138 360Q2158 408 2192 441Q2226 474 2272 491Q2319 508 2373 508Q2415 508 2454 497Q2494 486 2524 464Q2555 442 2573 408Q2592 375 2592 330Q2592 290 2577 262Q2562 234 2534 217Q2507 200 2468 192Q2430 184 2383 184ZM2376 416Q2349 416 2324 409Q2299 403 2278 388Q2258 374 2244 350Q2230 327 2225 292Q2263 275 2299 268Q2335 262 2375 262Q2434 262 2462 276Q2491 291 2491 329Q2491 364 2464 390Q2438 416 2376 416Z" fill="#f0dd7a" style=""></path></g></g></g></svg>